<?xml version="1.0" encoding="utf-8"?>
<!-- Generator: Adobe Illustrator 16.0.0, SVG Export Plug-In . SVG Version: 6.00 Build 0)  -->
<!DOCTYPE svg PUBLIC "-//W3C//DTD SVG 1.1//EN" "http://www.w3.org/Graphics/SVG/1.1/DTD/svg11.dtd">
<svg version="1.1" id="Calque_1" xmlns="http://www.w3.org/2000/svg" xmlns:xlink="http://www.w3.org/1999/xlink" x="0px" y="0px"
	 width="47.75px" height="51.339px" viewBox="0 0 47.75 51.339" enable-background="new 0 0 47.75 51.339" xml:space="preserve">
<g>
	<path fill="#F6DC10" d="M24.203,41.841c1.854-0.13,3.71-0.236,5.569-0.299c0.929-0.032,1.859-0.052,2.79-0.044
		c0.465,0.001,0.931,0.016,1.397,0.043c0.233,0.023,0.466,0.024,0.699,0.067c0.232,0.023,0.466,0.078,0.7,0.166l-0.104,0.039
		c1.409-3.582,2.815-7.165,4.288-10.723c0.732-1.781,1.478-3.557,2.27-5.314c0.38-0.884,0.831-1.742,1.244-2.614
		c0.212-0.434,0.409-0.873,0.674-1.292l0.75-1.269l0.036-0.062l0.105-0.031c0.442-0.13,0.908-0.36,1.247-0.682
		c0.095-0.072,0.151-0.176,0.229-0.262c0.081-0.085,0.147-0.179,0.184-0.289l0.142-0.312l0.046-0.343
		c0.059-0.217,0.003-0.463-0.004-0.732c-0.046-0.242-0.074-0.461-0.179-0.667c-0.174-0.423-0.524-0.725-0.986-0.842
		c-0.471-0.118-0.935-0.147-1.467-0.109c-0.484,0.042-0.959,0.148-1.264,0.457c-0.311,0.298-0.431,0.784-0.456,1.273
		c-0.062,0.484,0.014,0.967,0.198,1.429c0.1,0.172,0.173,0.666,0.057,0.894l-0.127,0.414L42.065,21.1
		c-0.222,0.493-0.499,0.941-0.755,1.39l-1.563,2.706c-0.516,0.904-0.976,1.83-1.466,2.744c-0.261,0.452-0.414,0.943-0.626,1.412
		l-0.596,1.423l-0.401,0.958l-0.085-1.013c-0.142-1.682-0.25-3.363-0.316-5.05c-0.041-0.842-0.048-1.688-0.051-2.535
		c-0.003-0.423,0.034-0.852,0.049-1.277c-0.008-0.419,0.128-0.875,0.193-1.31l0.01-0.063l0.091-0.065
		c0.313-0.224,0.608-0.546,0.817-0.887c0.095-0.178,0.192-0.356,0.238-0.552c0.081-0.187,0.07-0.391,0.1-0.587
		c0.002-0.156-0.019-0.438-0.057-0.619c-0.057-0.18-0.093-0.365-0.204-0.534c-0.074-0.186-0.226-0.316-0.344-0.47
		c-0.161-0.112-0.299-0.255-0.489-0.324c-0.171-0.102-0.371-0.14-0.564-0.192c-0.196-0.034-0.409-0.046-0.603-0.053
		c-0.458,0.01-0.851,0.045-1.222,0.185c-0.164,0.092-0.35,0.162-0.46,0.313c-0.147,0.116-0.215,0.303-0.309,0.469
		c-0.064,0.185-0.108,0.385-0.15,0.583l-0.043,0.627l-0.002-0.035c0.049,0.25,0.136,0.528,0.254,0.773
		c0.069,0.141,0.109,0.204,0.201,0.409c0.056,0.139,0.118,0.27,0.167,0.415c0.023,0.176,0.042,0.358,0.053,0.537
		c0.002,0.174-0.042,0.319-0.063,0.48c-0.035,0.326-0.162,0.595-0.242,0.893c-0.395,1.125-0.809,2.232-1.211,3.349
		c-0.361,1.126-0.696,2.261-1.045,3.391l-1.037,3.393l-0.178,0.581l-0.283-0.524c-1.015-1.884-1.937-3.807-2.745-5.79l-0.557-1.508
		c-0.102-0.248-0.156-0.515-0.236-0.772l-0.221-0.778c-0.168-0.512-0.183-1.077-0.279-1.612c-0.046-0.274-0.056-0.521-0.062-0.808
		c0-0.139-0.001-0.277,0.014-0.424c0.021-0.146,0.009-0.293,0.166-0.528l0.011-0.016l0.063-0.039
		c0.103-0.063,0.249-0.25,0.326-0.427c0.078-0.19,0.129-0.4,0.15-0.618l0.021-0.318l-0.018-0.358
		c-0.03-0.231-0.045-0.432-0.129-0.632c-0.058-0.208-0.177-0.376-0.298-0.539l-0.225-0.205c-0.083-0.06-0.184-0.098-0.273-0.149
		c-0.177-0.11-0.412-0.123-0.615-0.19l-0.677-0.045l-0.697,0.048c-0.198,0.07-0.416,0.077-0.596,0.188
		c-0.09,0.051-0.19,0.089-0.273,0.149l-0.225,0.205c-0.121,0.162-0.24,0.33-0.298,0.539c-0.083,0.193-0.102,0.421-0.129,0.639
		c-0.019,0.236-0.021,0.432,0.004,0.679c0.024,0.228,0.07,0.409,0.149,0.608c0.078,0.177,0.224,0.363,0.326,0.427l0.063,0.039
		l0.011,0.016c0.157,0.234,0.145,0.382,0.166,0.528c0.015,0.147,0.014,0.285,0.014,0.424c-0.004,0.265-0.019,0.566-0.063,0.823
		c-0.097,0.526-0.104,1.053-0.274,1.579l-0.222,0.789c-0.08,0.259-0.136,0.534-0.238,0.779l-0.558,1.508
		c-0.808,1.983-1.729,3.906-2.745,5.79l-0.283,0.524l-0.178-0.581l-1.037-3.394c-0.349-1.13-0.683-2.265-1.044-3.392l-0.608-1.67
		l-0.304-0.835c-0.1-0.285-0.206-0.543-0.301-0.849c-0.079-0.294-0.199-0.541-0.238-0.878c-0.021-0.162-0.067-0.317-0.064-0.483
		l0.042-0.506c0.052-0.16,0.125-0.318,0.19-0.475c0.051-0.125,0.13-0.262,0.194-0.393c0.122-0.256,0.196-0.504,0.25-0.765
		l-0.002,0.035l-0.043-0.627c-0.042-0.198-0.086-0.398-0.15-0.583c-0.094-0.166-0.161-0.353-0.309-0.469
		c-0.111-0.151-0.297-0.221-0.46-0.313c-0.188-0.058-0.373-0.125-0.584-0.14c-0.201-0.039-0.418-0.034-0.63-0.044
		c-0.168,0.004-0.44,0.02-0.627,0.056c-0.184,0.053-0.372,0.086-0.546,0.189c-0.19,0.069-0.329,0.211-0.489,0.324
		c-0.119,0.154-0.271,0.284-0.345,0.47c-0.108,0.165-0.15,0.362-0.207,0.553c-0.038,0.186-0.052,0.422-0.056,0.581
		c0.029,0.213,0.028,0.462,0.105,0.621c0.042,0.178,0.138,0.358,0.234,0.537c0.209,0.341,0.503,0.663,0.817,0.887l0.09,0.065
		l0.01,0.063c0.065,0.435,0.201,0.892,0.193,1.311c0.015,0.425,0.052,0.854,0.048,1.277c-0.002,0.847-0.01,1.693-0.05,2.535
		c-0.067,1.687-0.175,3.368-0.317,5.05l-0.085,1.013l-0.401-0.958l-0.596-1.423c-0.212-0.469-0.366-0.96-0.626-1.412
		c-0.491-0.914-0.951-1.841-1.466-2.744L7.266,22.49c-0.255-0.443-0.543-0.916-0.755-1.388c-0.219-0.395-0.513-1.113-0.243-1.679
		c0.087-0.224,0.165-0.493,0.187-0.697C6.494,18.473,6.488,18.272,6.463,18c-0.029-0.513-0.142-0.957-0.456-1.271
		c-0.302-0.308-0.783-0.417-1.271-0.458c-0.487-0.038-1.025-0.005-1.459,0.11c-0.462,0.116-0.813,0.419-0.986,0.842
		c-0.173,0.406-0.244,0.951-0.185,1.39L2.161,19l0.14,0.288c0.032,0.099,0.097,0.192,0.179,0.279
		c0.079,0.085,0.134,0.189,0.229,0.262c0.339,0.322,0.805,0.551,1.247,0.682l0.105,0.031l0.036,0.062l0.75,1.269
		c0.266,0.419,0.462,0.857,0.674,1.292c0.414,0.872,0.864,1.73,1.244,2.614c0.78,1.763,1.535,3.535,2.264,5.316
		c1.473,3.558,2.88,7.141,4.292,10.722l-0.101-0.037c0.229-0.087,0.458-0.143,0.688-0.166c0.229-0.043,0.459-0.043,0.688-0.067
		c0.459-0.028,0.917-0.042,1.375-0.044c0.917-0.008,1.833,0.012,2.748,0.044C20.549,41.605,22.377,41.719,24.203,41.841z
		 M24.203,41.841c-1.828-0.099-3.656-0.188-5.486-0.225c-0.915-0.021-1.83-0.028-2.744-0.008c-0.457,0.007-0.914,0.028-1.368,0.062
		c-0.225,0.026-0.456,0.03-0.676,0.076c-0.229,0.026-0.441,0.083-0.642,0.16l-0.074,0.028l-0.027-0.066
		c-0.722-1.783-1.461-3.56-2.214-5.33c-0.757-1.769-1.506-3.541-2.287-5.298c-0.767-1.764-1.564-3.513-2.375-5.255
		c-0.38-0.884-0.826-1.731-1.236-2.598c-0.21-0.43-0.408-0.871-0.66-1.266l-0.716-1.217l0.141,0.092
		c-0.552-0.163-1.047-0.409-1.471-0.802c-0.111-0.087-0.19-0.215-0.285-0.322c-0.097-0.106-0.181-0.226-0.237-0.375
		c-0.063-0.14-0.128-0.284-0.18-0.424l-0.055-0.387c-0.069-0.587,0.002-1.117,0.223-1.666c0.213-0.544,0.745-0.987,1.3-1.117
		c0.573-0.146,1.089-0.165,1.639-0.129c0.534,0.047,1.143,0.16,1.587,0.603c0.444,0.427,0.575,1.081,0.602,1.59
		c0.075,0.52-0.032,1.16-0.228,1.639c-0.044,0.107-0.093,0.216-0.077,0.305l-0.01,0.141l0.048,0.161l0.097,0.326l0.171,0.351
		c0.215,0.479,0.475,0.896,0.738,1.355l1.563,2.706c0.518,0.906,0.985,1.846,1.479,2.768c0.261,0.453,0.424,0.963,0.64,1.442
		l0.61,1.459l-0.487,0.056c0.141-1.671,0.249-3.35,0.315-5.025c0.04-0.839,0.048-1.675,0.05-2.511
		c0.003-0.418-0.033-0.83-0.047-1.245c0.006-0.427-0.119-0.786-0.167-1.184l0.1,0.127c-0.408-0.291-0.717-0.64-0.974-1.05
		c-0.114-0.211-0.229-0.423-0.292-0.679c-0.096-0.255-0.084-0.459-0.116-0.684c-0.003-0.28,0.019-0.493,0.064-0.738
		c0.066-0.235,0.122-0.474,0.256-0.686c0.098-0.229,0.283-0.404,0.44-0.594c0.197-0.147,0.381-0.321,0.612-0.41
		c0.212-0.123,0.462-0.177,0.707-0.237c0.246-0.041,0.421-0.051,0.694-0.059c0.456,0.01,0.929,0.042,1.397,0.221
		c0.219,0.115,0.464,0.22,0.628,0.425c0.203,0.173,0.298,0.409,0.416,0.632c0.083,0.229,0.135,0.467,0.182,0.7l0.048,0.699
		l0.001,0.016l-0.003,0.02c-0.059,0.321-0.167,0.644-0.299,0.921c-0.066,0.136-0.136,0.256-0.2,0.405l-0.142,0.348l-0.029,0.38
		c-0.003,0.128,0.039,0.264,0.054,0.395c0.019,0.256,0.153,0.557,0.228,0.835c0.081,0.26,0.197,0.552,0.294,0.827l0.304,0.836
		l0.608,1.672c0.363,1.131,0.7,2.272,1.05,3.408l1.042,3.411l-0.46-0.056c1.002-1.86,1.921-3.777,2.718-5.733l0.548-1.484
		c0.102-0.247,0.15-0.497,0.228-0.745l0.213-0.746c0.164-0.488,0.175-1.042,0.271-1.56c0.046-0.268,0.053-0.499,0.06-0.765
		c0-0.126,0-0.255-0.012-0.372c0-0.117-0.052-0.241-0.035-0.234l0.074,0.055c-0.31-0.189-0.437-0.421-0.564-0.672
		c-0.104-0.243-0.169-0.532-0.192-0.779c-0.024-0.23-0.025-0.512-0.003-0.754c0.031-0.252,0.053-0.513,0.155-0.762
		c0.074-0.255,0.228-0.491,0.395-0.705l0.306-0.279c0.11-0.079,0.236-0.131,0.354-0.197c0.234-0.137,0.515-0.16,0.77-0.234
		l0.736-0.049l0.755,0.052c0.25,0.076,0.514,0.094,0.75,0.231c0.118,0.065,0.244,0.118,0.354,0.197l0.306,0.279
		c0.167,0.215,0.321,0.45,0.395,0.705c0.102,0.242,0.127,0.53,0.156,0.769l0.018,0.359L27,18.771
		c-0.026,0.257-0.086,0.518-0.191,0.77c-0.127,0.25-0.254,0.483-0.564,0.672l0.074-0.055c0.017-0.006-0.036,0.117-0.035,0.234
		c-0.012,0.117-0.012,0.246-0.012,0.372c0.004,0.244,0.016,0.53,0.061,0.781c0.095,0.508,0.1,1.023,0.265,1.525l0.215,0.756
		c0.078,0.25,0.128,0.507,0.23,0.752l0.548,1.484c0.797,1.956,1.716,3.873,2.718,5.733l-0.46,0.056l1.042-3.412
		c0.351-1.136,0.688-2.277,1.05-3.408c0.402-1.114,0.819-2.229,1.209-3.342c0.073-0.274,0.2-0.552,0.224-0.821
		c0.016-0.132,0.06-0.277,0.055-0.398c-0.012-0.116-0.018-0.23-0.018-0.349c-0.045-0.133-0.111-0.272-0.165-0.408
		c-0.023-0.068-0.132-0.263-0.192-0.388c-0.137-0.29-0.232-0.581-0.295-0.913l-0.003-0.019l0.001-0.016l0.048-0.699
		c0.047-0.233,0.1-0.471,0.182-0.7c0.118-0.223,0.213-0.458,0.416-0.632c0.164-0.205,0.409-0.31,0.628-0.425
		c0.233-0.077,0.468-0.154,0.708-0.173c0.247-0.044,0.458-0.037,0.682-0.048c0.247,0.005,0.481,0.02,0.719,0.062
		c0.234,0.061,0.473,0.111,0.688,0.234c0.231,0.089,0.415,0.262,0.612,0.41c0.158,0.19,0.342,0.365,0.44,0.594
		c0.132,0.208,0.194,0.459,0.259,0.706c0.044,0.25,0.059,0.417,0.062,0.699c-0.031,0.241-0.028,0.49-0.121,0.718
		c-0.059,0.239-0.172,0.452-0.288,0.664c-0.257,0.411-0.566,0.759-0.974,1.05l0.1-0.127c-0.048,0.397-0.173,0.756-0.167,1.184
		c-0.014,0.415-0.05,0.827-0.047,1.245c0.002,0.836,0.01,1.672,0.05,2.511c0.066,1.675,0.174,3.354,0.315,5.025l-0.487-0.056
		l0.61-1.459c0.216-0.479,0.379-0.989,0.64-1.442c0.494-0.921,0.961-1.862,1.479-2.767l1.563-2.706
		c0.261-0.455,0.532-0.895,0.737-1.354l0.167-0.341l0.102-0.333l0.049-0.165c-0.006-0.044-0.009-0.087-0.009-0.13
		c0.022-0.073-0.03-0.203-0.081-0.325c-0.199-0.503-0.296-1.082-0.225-1.633c0.031-0.533,0.154-1.145,0.601-1.587
		c0.441-0.442,1.058-0.558,1.594-0.603c0.505-0.036,1.096-0.015,1.632,0.129c0.555,0.13,1.087,0.573,1.3,1.117
		c0.133,0.257,0.175,0.571,0.222,0.834c0.005,0.25,0.067,0.526,0.003,0.823c-0.009,0.591-0.369,1.119-0.758,1.518
		c-0.424,0.393-0.919,0.639-1.471,0.802l0.141-0.092l-0.716,1.217c-0.252,0.395-0.45,0.835-0.66,1.266
		c-0.411,0.867-0.856,1.714-1.236,2.598c-0.798,1.747-1.604,3.493-2.369,5.258c-0.781,1.757-1.53,3.529-2.288,5.298
		c-0.752,1.771-1.495,3.546-2.216,5.33l-0.028,0.068l-0.077-0.03c-0.203-0.078-0.419-0.134-0.651-0.16
		c-0.224-0.045-0.458-0.049-0.688-0.075c-0.461-0.033-0.925-0.054-1.389-0.062c-0.928-0.021-1.857-0.013-2.786,0.007
		C27.916,41.655,26.059,41.736,24.203,41.841z"/>
</g>
</svg>
